<svg version="1.1" xmlns="http://www.w3.org/2000/svg" xmlns:xlink="http://www.w3.org/1999/xlink" width="448px" height="512px" viewBox="0,0,224,256"><g fill-opacity="0.8" fill="#000000" fill-rule="nonzero" stroke="none" stroke-width="1" stroke-linecap="butt" stroke-linejoin="miter" stroke-miterlimit="10" stroke-dasharray="" stroke-dashoffset="0" font-family="none" font-weight="none" font-size="none" text-anchor="none" style="mix-blend-mode: normal"><g transform="scale(0.5,0.5)"><path d="M224,202.66c-29.45626,0.01104 -53.32736,23.89706 -53.32,53.35333c0.00736,29.45626 23.8904,53.33035 53.34666,53.32667c29.45626,-0.00368 53.33333,-23.88373 53.33334,-53.34c-0.02207,-29.45753 -23.90246,-53.32897 -53.36,-53.34zM348.71,161.66c-5.48882,-13.91001 -16.49999,-24.92118 -30.41,-30.41c-21,-8.29 -71,-6.43 -94.3,-6.43c-23.3,0 -73.25,-1.93 -94.31,6.43c-13.91001,5.48882 -24.92118,16.49999 -30.41,30.41c-8.28,21 -6.43,71.05 -6.43,94.33c0,23.28 -1.85,73.27 6.47,94.34c5.48882,13.91001 16.49999,24.92118 30.41,30.41c21,8.29 71,6.43 94.31,6.43c23.31,0 73.24,1.93 94.3,-6.43c13.91001,-5.48882 24.92118,-16.49999 30.41,-30.41c8.35,-21 6.43,-71.05 6.43,-94.33c0,-23.28 1.92,-73.26 -6.43,-94.33zM224,338c-45.28735,0 -82,-36.71265 -82,-82c0,-45.28735 36.71265,-82 82,-82c45.28735,0 82,36.71265 82,82c0.02658,21.75589 -8.60414,42.62836 -23.98789,58.01211c-15.38375,15.38375 -36.25622,24.01447 -58.01211,23.98789zM309.38,189.7c-7.74232,0.00405 -14.72452,-4.6567 -17.69018,-11.80851c-2.96566,-7.15181 -1.33059,-15.3859 4.14262,-20.86198c5.47321,-5.47608 13.70645,-7.11545 20.85981,-4.15352c7.15336,2.96192 11.81775,9.94169 11.81775,17.68401c0.02127,5.07775 -1.98028,9.95497 -5.56237,13.55394c-3.58209,3.59898 -8.44984,5.62344 -13.52763,5.62606zM400,32h-352c-26.50967,0 -48,21.49033 -48,48v352c0,26.50967 21.49033,48 48,48h352c26.50967,0 48,-21.49033 48,-48v-352c0,-26.50967 -21.49033,-48 -48,-48zM382.88,322c-1.29,25.63 -7.14,48.34 -25.85,67c-18.71,18.66 -41.4,24.63 -67,25.85c-26.41,1.49 -105.59,1.49 -132,0c-25.63,-1.29 -48.26,-7.15 -67,-25.85c-18.74,-18.7 -24.63,-41.42 -25.85,-67c-1.49,-26.42 -1.49,-105.61 0,-132c1.29,-25.63 7.07,-48.34 25.85,-67c18.78,-18.66 41.47,-24.56 67,-25.78c26.41,-1.49 105.59,-1.49 132,0c25.63,1.29 48.33,7.15 67,25.85c18.67,18.7 24.63,41.42 25.85,67.05c1.49,26.32 1.49,105.44 0,131.88z"></path></g></g></svg>