<svg version="1.1" xmlns="http://www.w3.org/2000/svg" xmlns:xlink="http://www.w3.org/1999/xlink" width="448px" height="512px" viewBox="0,0,224,256"><g fill-opacity="0.8" fill="#000000" fill-rule="nonzero" stroke="none" stroke-width="1" stroke-linecap="butt" stroke-linejoin="miter" stroke-miterlimit="10" stroke-dasharray="" stroke-dashoffset="0" font-family="none" font-weight="none" font-size="none" text-anchor="none" style="mix-blend-mode: normal"><g transform="scale(0.5,0.5)"><path d="M224,122.8c-72.7,0 -131.8,59.1 -131.9,131.8c0,24.9 7,49.2 20.2,70.1l3.1,5l-13.3,48.6l49.9,-13.1l4.8,2.9c20.2,12 43.4,18.4 67.1,18.4h0.1c72.6,0 133.3,-59.1 133.3,-131.8c0,-35.2 -15.2,-68.3 -40.1,-93.2c-25,-25 -58,-38.7 -93.2,-38.7zM301.5,311.2c-3.3,9.3 -19.1,17.7 -26.7,18.8c-12.6,1.9 -22.4,0.9 -47.5,-9.9c-39.7,-17.2 -65.7,-57.2 -67.7,-59.8c-2,-2.6 -16.2,-21.5 -16.2,-41c0,-19.5 10.2,-29.1 13.9,-33.1c3.6,-4 7.9,-5 10.6,-5c2.6,0 5.3,0 7.6,0.1c2.4,0.1 5.7,-0.9 8.9,6.8c3.3,7.9 11.2,27.4 12.2,29.4c1,2 1.7,4.3 0.3,6.9c-7.6,15.2 -15.7,14.6 -11.6,21.6c15.3,26.3 30.6,35.4 53.9,47.1c4,2 6.3,1.7 8.6,-1c2.3,-2.6 9.9,-11.6 12.5,-15.5c2.6,-4 5.3,-3.3 8.9,-2c3.6,1.3 23.1,10.9 27.1,12.9c4,2 6.6,3 7.6,4.6c0.9,1.9 0.9,9.9 -2.4,19.1zM400,32h-352c-26.5,0 -48,21.5 -48,48v352c0,26.5 21.5,48 48,48h352c26.5,0 48,-21.5 48,-48v-352c0,-26.5 -21.5,-48 -48,-48zM223.9,413.2c-26.6,0 -52.7,-6.7 -75.8,-19.3l-84.1,22.1l22.5,-82.2c-13.9,-24 -21.2,-51.3 -21.2,-79.3c0.1,-87.4 71.2,-158.5 158.6,-158.5c42.4,0 82.2,16.5 112.2,46.5c29.9,30 47.9,69.8 47.9,112.2c0,87.4 -72.7,158.5 -160.1,158.5z"></path></g></g></svg>